<?xml version="1.0" encoding="UTF-8"?>
<svg width="512" height="512" viewBox="0 0 512 512" xmlns="http://www.w3.org/2000/svg">
  <rect width="512" height="512" fill="#ff7b00" rx="128" ry="128"/>
  <path d="M256 128c-70.7 0-128 57.3-128 128s57.3 128 128 128 128-57.3 128-128-57.3-128-128-128zm0 204.8c-42.4 0-76.8-34.4-76.8-76.8s34.4-76.8 76.8-76.8 76.8 34.4 76.8 76.8-34.4 76.8-76.8 76.8zm0-76.8c0-21.2 17.2-38.4 38.4-38.4s38.4 17.2 38.4 38.4-17.2 38.4-38.4 38.4-38.4-17.2-38.4-38.4z" fill="white"/>
</svg>